<svg width="56" height="57" viewBox="0 0 56 57" fill="none" xmlns="http://www.w3.org/2000/svg">
<circle cx="28" cy="28.3584" r="28" fill="#27446E"/>
<path fill-rule="evenodd" clip-rule="evenodd" d="M28 18.3584C23.5817 18.3584 20 22.361 20 26.8584C20 31.3206 22.5533 36.1708 26.5371 38.0328C27.4657 38.4669 28.5343 38.4669 29.4629 38.0328C33.4467 36.1708 36 31.3206 36 26.8584C36 22.361 32.4183 18.3584 28 18.3584ZM28 28.3584C29.1046 28.3584 30 27.463 30 26.3584C30 25.2538 29.1046 24.3584 28 24.3584C26.8954 24.3584 26 25.2538 26 26.3584C26 27.463 26.8954 28.3584 28 28.3584Z" fill="white"/>
</svg>
