<svg width="56" height="57" viewBox="0 0 56 57" fill="none" xmlns="http://www.w3.org/2000/svg">
<circle cx="28" cy="28.3584" r="28" fill="#27446E"/>
<path d="M23.75 18.8584C23.75 18.4442 23.4142 18.1084 23 18.1084C22.5858 18.1084 22.25 18.4442 22.25 18.8584V20.4377C20.8107 20.5529 19.8658 20.8358 19.1716 21.53C18.4774 22.2242 18.1945 23.1691 18.0793 24.6084H37.9207C37.8055 23.1691 37.5226 22.2242 36.8284 21.53C36.1342 20.8358 35.1893 20.5529 33.75 20.4377V18.8584C33.75 18.4442 33.4142 18.1084 33 18.1084C32.5858 18.1084 32.25 18.4442 32.25 18.8584V20.3713C31.5847 20.3584 30.839 20.3584 30 20.3584H26C25.161 20.3584 24.4153 20.3584 23.75 20.3713V18.8584Z" fill="white"/>
<path fill-rule="evenodd" clip-rule="evenodd" d="M18 28.3584C18 27.5194 18 26.7737 18.0129 26.1084H37.9871C38 26.7737 38 27.5194 38 28.3584V30.3584C38 34.1296 38 36.0153 36.8284 37.1868C35.6569 38.3584 33.7712 38.3584 30 38.3584H26C22.2288 38.3584 20.3431 38.3584 19.1716 37.1868C18 36.0153 18 34.1296 18 30.3584V28.3584ZM33 30.3584C33.5523 30.3584 34 29.9107 34 29.3584C34 28.8061 33.5523 28.3584 33 28.3584C32.4477 28.3584 32 28.8061 32 29.3584C32 29.9107 32.4477 30.3584 33 30.3584ZM33 34.3584C33.5523 34.3584 34 33.9107 34 33.3584C34 32.8061 33.5523 32.3584 33 32.3584C32.4477 32.3584 32 32.8061 32 33.3584C32 33.9107 32.4477 34.3584 33 34.3584ZM29 29.3584C29 29.9107 28.5523 30.3584 28 30.3584C27.4477 30.3584 27 29.9107 27 29.3584C27 28.8061 27.4477 28.3584 28 28.3584C28.5523 28.3584 29 28.8061 29 29.3584ZM29 33.3584C29 33.9107 28.5523 34.3584 28 34.3584C27.4477 34.3584 27 33.9107 27 33.3584C27 32.8061 27.4477 32.3584 28 32.3584C28.5523 32.3584 29 32.8061 29 33.3584ZM23 30.3584C23.5523 30.3584 24 29.9107 24 29.3584C24 28.8061 23.5523 28.3584 23 28.3584C22.4477 28.3584 22 28.8061 22 29.3584C22 29.9107 22.4477 30.3584 23 30.3584ZM23 34.3584C23.5523 34.3584 24 33.9107 24 33.3584C24 32.8061 23.5523 32.3584 23 32.3584C22.4477 32.3584 22 32.8061 22 33.3584C22 33.9107 22.4477 34.3584 23 34.3584Z" fill="white"/>
</svg>
